<?xml version="1.0" encoding="utf-8"?>
<!-- Generator: Adobe Illustrator 16.0.0, SVG Export Plug-In . SVG Version: 6.00 Build 0)  -->
<!DOCTYPE svg PUBLIC "-//W3C//DTD SVG 1.1//EN" "http://www.w3.org/Graphics/SVG/1.1/DTD/svg11.dtd">
<svg version="1.1" id="Layer_1" xmlns="http://www.w3.org/2000/svg" xmlns:xlink="http://www.w3.org/1999/xlink" x="0px" y="0px"
	 width="512px" height="512px" viewBox="0 0 512 512" enable-background="new 0 0 512 512" xml:space="preserve">
<g>
	<path fill="#010101" d="M98.992,155.679c20.893,2.09,38.129-15.146,36.039-36.039c-1.566-15.15-14.103-27.687-29.249-29.253
		c-20.893-2.09-38.133,15.149-36.043,36.042C71.306,141.576,83.842,154.112,98.992,155.679z"/>
	<path fill="#010101" d="M121.975,306.112H75.486c-16.713,0-30.816-8.36-34.996-27.163l-14.626-72.082
		c-3.657-17.76-28.729-11.49-25.593,5.747l15.669,74.691c6.267,28.729,30.816,44.923,55.366,44.923h50.669
		C140.254,332.229,140.254,306.112,121.975,306.112z"/>
	<path fill="#010101" d="M413.432,153.589c15.15-1.567,27.69-14.104,29.253-29.25c2.093-20.893-15.15-38.132-36.042-36.042
		c-15.143,2.09-27.16,14.103-28.729,29.772C375.833,138.442,393.062,155.679,413.432,153.589z"/>
	<path fill="#010101" d="M462.015,263.803l-13.063-72.605c-5.22-29.773-27.683-36.562-41.786-27.163
		c-2.086,1.047-4.173,1.57-5.743,3.137l-36.042,27.683l-54.319,1.043c-6.266,0-11.493,4.704-10.97,10.97
		c0,6.911,5.399,9.544,11.631,10.446h-0.661H198.233c6.27,0,11.493-3.133,11.493-9.4c0-6.27-4.7-10.45-10.97-10.45l-50.143-0.52
		l-36.042-27.686c-2.09-1.567-2.09-1.043-5.747-3.133c-14.103-9.403-36.562-2.61-42.309,27.163l-14.103,71.038
		c-5.743,24.026,10.446,36.562,27.163,36.562h68.425c0,0,0,56.933,0,79.919c0,24.55,36.562,24.55,36.562,0.523V281.039
		c0-12.013-8.356-24.549-24.549-24.549h-55.365l13.056-54.846l20.373,15.669c0.027,0.021,0.055,0.024,0.083,0.042
		c-7.096,0.23-12.619,5.856-12.619,13.019c0,7.313,5.747,13.056,13.057,13.056h77.308v151.48c5.224,0,83.575,0,83.575,0V243.43
		h72.079c7.313,0,13.063-5.743,13.063-13.056c0-7.313-5.75-13.06-13.063-13.06h-0.517c2.603,0,4.696-1.043,6.79-2.61l20.37-15.673
		l13.057,54.846H353.37c-16.196,0-25.073,13.06-25.073,25.072v100.288c0,24.55,36.559,24.033,36.559-0.523
		c0-22.979,0-78.348,0-78.348h69.992C451.568,300.889,467.765,287.829,462.015,263.803z"/>
	<path fill="#010101" d="M486.564,205.824l-15.149,72.605c-4.173,18.803-18.276,27.683-34.996,27.683h-46.482
		c-18.29,0-18.29,26.116,0,26.116h50.662c24.549,0,49.099-17.236,55.372-45.966l15.666-75.738
		C515.293,193.288,490.221,188.064,486.564,205.824z"/>
</g>
</svg>
